<svg xmlns="http://www.w3.org/2000/svg" xmlns:xlink="http://www.w3.org/1999/xlink" xmlns:lucid="lucid" width="1025.51" height="1540.99"><g transform="translate(-179.00091382906166 -40)" lucid:page-tab-id="YGcM5DNywbTK"><g filter="url(#a)"><path d="M363.47 140c22.58 0 40.87 18 40.87 40.2 0 22.2-18.3 40.2-40.87 40.2h-122.6c-22.57 0-40.87-18-40.87-40.2 0-22.2 18.3-40.2 40.87-40.2z" stroke="#000" stroke-opacity="0" fill="#113667"/><use xlink:href="#b" transform="matrix(1,0,0,1,204.8,144.8) translate(74.22222222222223 39.16875)"/></g><path d="M400 68c0-4.42 3.58-8 8-8h500.27c4.42 0 8 3.58 8 8v25.16c0 4.4-3.58 8-8 8H408c-4.42 0-8-3.6-8-8z" stroke="#000" stroke-opacity="0" stroke-width="2" fill="#fff" fill-opacity="0"/><use xlink:href="#c" transform="matrix(1,0,0,1,404,64) translate(212.0667901234568 25.782777777777778)"/><path d="M484.9 99.8h351.12M484.93 99.8h-1.03M836 99.8H837" stroke="#b2b2b2" stroke-width="2" fill="none"/><path d="M400 108c0-4.42 3.58-8 8-8h500.85c4.42 0 8 3.58 8 8v2.84c0 4.42-3.58 8-8 8H408c-4.42 0-8-3.58-8-8z" stroke="#000" stroke-opacity="0" stroke-width="2" fill="#fff" fill-opacity="0"/><use xlink:href="#d" transform="matrix(1,0,0,1,404,104) translate(146.06205761316875 14.917037037037037)"/><use xlink:href="#e" transform="matrix(1,0,0,1,404,104) translate(185.87491769547327 14.917037037037037)"/><use xlink:href="#f" transform="matrix(1,0,0,1,404,104) translate(200.02399176954734 14.917037037037037)"/><use xlink:href="#g" transform="matrix(1,0,0,1,404,104) translate(213.62069958847738 14.917037037037037)"/><use xlink:href="#h" transform="matrix(1,0,0,1,404,104) translate(232.31617283950618 14.917037037037037)"/><use xlink:href="#i" transform="matrix(1,0,0,1,404,104) translate(244.76565843621398 14.917037037037037)"/><use xlink:href="#j" transform="matrix(1,0,0,1,404,104) translate(310.07234567901236 14.917037037037037)"/><use xlink:href="#k" transform="matrix(1,0,0,1,404,104) translate(335.5661728395062 14.917037037037037)"/><g filter="url(#l)"><path d="M1142.66 1334.44c22.57 0 40.87 18 40.87 40.2 0 22.2-18.3 40.2-40.87 40.2h-122.6c-22.58 0-40.87-18-40.87-40.2 0-22.2 18.28-40.2 40.85-40.2z" stroke="#000" stroke-opacity="0" fill="#d7e9ff"/><use xlink:href="#m" transform="matrix(1,0,0,1,983.9860688050627,1339.2430700243542) translate(79.72222222222223 39.16875)"/></g><g filter="url(#n)"><path d="M298.17 403c2.2-1.66 5.8-1.66 8 0l72 54c2.2 1.66 2.2 4.34 0 6l-72 54c-2.2 1.66-5.8 1.66-8 0l-72-54c-2.2-1.66-2.2-4.34 0-6z" stroke="#666" fill="#f9d2de"/><use xlink:href="#o" transform="matrix(1,0,0,1,227.17148760330576,405) translate(35.727222222222224 50.019444444444446)"/><use xlink:href="#p" transform="matrix(1,0,0,1,227.17148760330576,405) translate(66.79512345679012 50.019444444444446)"/><use xlink:href="#q" transform="matrix(1,0,0,1,227.17148760330576,405) translate(97.86302469135804 50.019444444444446)"/><use xlink:href="#r" transform="matrix(1,0,0,1,227.17148760330576,405) translate(40.458703703703705 68.68611111111112)"/></g><path d="M302.17 327.86v57" stroke="#666" fill="none"/><path d="M302.67 327.87h-1v-.5h1z" fill="#666"/><path d="M302.17 399.63l-4.63-14.26h9.27z" stroke="#666" fill="#666"/><g filter="url(#n)"><path d="M298.17 583c2.2-1.66 5.8-1.66 8 0l72 54c2.2 1.66 2.2 4.34 0 6l-72 54c-2.2 1.66-5.8 1.66-8 0l-72-54c-2.2-1.66-2.2-4.34 0-6z" stroke="#666" fill="#f9d2de"/><use xlink:href="#s" transform="matrix(1,0,0,1,227.17148760330576,585) translate(16.864876543209874 56.894444444444446)"/><use xlink:href="#t" transform="matrix(1,0,0,1,227.17148760330576,585) translate(48.796975308641976 56.894444444444446)"/><use xlink:href="#u" transform="matrix(1,0,0,1,227.17148760330576,585) translate(70.40191358024691 56.894444444444446)"/></g><path d="M302.67 564.87h-1v-3.94h1zm0-25.8h-1v-19.82h1z" fill="#666"/><path d="M302.67 519.26h-1v-.6l.5.1.5-.1zM302.17 579.63l-4.63-14.26h9.27z" fill="#666"/><path d="M302.17 581.25l-5.32-16.38h10.64zm-3.95-15.38l3.95 12.15 3.95-12.15z" fill="#666"/><use xlink:href="#v" transform="matrix(1,0,0,1,294.8258085909601,539.0666666666667) translate(-5.595 15.644444444444446)"/><g filter="url(#w)"><path d="M462.34 421.26c0-2.77 2.24-5 5-5h150c2.76 0 5 2.23 5 5v77.48c0 2.77-2.24 5-5 5h-150c-2.76 0-5-2.23-5-5z" stroke="#666" fill="#d7e9ff"/><use xlink:href="#x" transform="matrix(1,0,0,1,467.33677685948874,421.25561999305) translate(15.474074074074075 32.706944444444446)"/><use xlink:href="#y" transform="matrix(1,0,0,1,467.33677685948874,421.25561999305) translate(81.02345679012348 32.706944444444446)"/><use xlink:href="#z" transform="matrix(1,0,0,1,467.33677685948874,421.25561999305) translate(111.27037037037039 32.706944444444446)"/><use xlink:href="#p" transform="matrix(1,0,0,1,467.33677685948874,421.25561999305) translate(14.549382716049376 51.37361111111112)"/><use xlink:href="#A" transform="matrix(1,0,0,1,467.33677685948874,421.25561999305) translate(45.61728395061728 51.37361111111112)"/><use xlink:href="#B" transform="matrix(1,0,0,1,467.33677685948874,421.25561999305) translate(75 51.37361111111112)"/></g><path d="M542.34 415.26V293.43H399.06" stroke="#666" fill="none"/><path d="M542.84 415.76h-1v-.52h1z" fill="#666"/><path d="M384.3 293.43l14.26-4.63v9.27z" stroke="#666" fill="#666"/><g filter="url(#C)"><path d="M762.34 611.57c0-2.76 2.24-5 5-5h150c2.76 0 5 2.24 5 5v56.86c0 2.76-2.24 5-5 5h-150c-2.76 0-5-2.24-5-5z" stroke="#666" fill="#d7e9ff"/><use xlink:href="#D" transform="matrix(1,0,0,1,767.3367768594887,611.5695249912978) translate(18.54197530864198 29.894444444444446)"/><use xlink:href="#E" transform="matrix(1,0,0,1,767.3367768594887,611.5695249912978) translate(53.93086419753087 29.894444444444446)"/></g><g filter="url(#n)"><path d="M538.34 583c2.2-1.66 5.8-1.66 8 0l72 54c2.2 1.66 2.2 4.34 0 6l-72 54c-2.2 1.66-5.8 1.66-8 0l-72-54c-2.2-1.66-2.2-4.34 0-6z" stroke="#666" fill="#f9d2de"/><use xlink:href="#s" transform="matrix(1,0,0,1,467.33677685948874,585) translate(9.151913580246921 56.894444444444446)"/><use xlink:href="#t" transform="matrix(1,0,0,1,467.33677685948874,585) translate(41.08401234567902 56.894444444444446)"/><use xlink:href="#F" transform="matrix(1,0,0,1,467.33677685948874,585) translate(62.688950617283965 56.894444444444446)"/></g><g filter="url(#G)"><path d="M222.34 948.3c0-2.75 2.24-5 5-5h150c2.76 0 5 2.25 5 5v50c0 2.77-2.24 5-5 5h-150c-2.76 0-5-2.23-5-5z" stroke="#666" fill="#d7e9ff"/><use xlink:href="#D" transform="matrix(1,0,0,1,227.33677685953205,948.3068800069501) translate(26.687037037037037 28.144444444444446)"/><use xlink:href="#H" transform="matrix(1,0,0,1,227.33677685953205,948.3068800069501) translate(62.07592592592593 28.144444444444446)"/></g><g filter="url(#I)"><path d="M462.34 781.26c0-2.77 2.24-5 5-5h150c2.76 0 5 2.23 5 5v77.48c0 2.77-2.24 5-5 5h-150c-2.76 0-5-2.23-5-5z" stroke="#666" fill="#ffeca9"/><use xlink:href="#J" transform="matrix(1,0,0,1,467.33677685948874,781.25561999305) translate(9.943209876543207 32.706944444444446)"/><use xlink:href="#K" transform="matrix(1,0,0,1,467.33677685948874,781.25561999305) translate(70.17777777777778 32.706944444444446)"/><use xlink:href="#L" transform="matrix(1,0,0,1,467.33677685948874,781.25561999305) translate(47.842592592592595 51.37361111111112)"/><use xlink:href="#M" transform="matrix(1,0,0,1,467.33677685948874,781.25561999305) translate(69.44753086419753 51.37361111111112)"/></g><g filter="url(#n)"><path d="M298.17 763c2.2-1.66 5.8-1.66 8 0l72 54c2.2 1.66 2.2 4.34 0 6l-72 54c-2.2 1.66-5.8 1.66-8 0l-72-54c-2.2-1.66-2.2-4.34 0-6z" stroke="#666" fill="#f9d2de"/><use xlink:href="#s" transform="matrix(1,0,0,1,227.17148760333657,765) translate(23.217962962962954 50.019444444444446)"/><use xlink:href="#t" transform="matrix(1,0,0,1,227.17148760333657,765) translate(55.15006172839506 50.019444444444446)"/><use xlink:href="#N" transform="matrix(1,0,0,1,227.17148760333657,765) translate(76.755 50.019444444444446)"/><use xlink:href="#O" transform="matrix(1,0,0,1,227.17148760333657,765) translate(57.742654320987654 68.68611111111112)"/></g><path d="M302.67 744.87h-1v-3.94h1zm0-25.8h-1v-19.82h1z" fill="#666"/><path d="M302.67 699.26h-1v-.6l.5.1.5-.1zM302.17 759.63l-4.63-14.26h9.27z" fill="#666"/><path d="M302.17 761.25l-5.32-16.38h10.64zm-3.95-15.38l3.95 12.15 3.95-12.15z" fill="#666"/><use xlink:href="#v" transform="matrix(1,0,0,1,294.8258085909601,719.0666666666689) translate(-5.595 15.644444444444446)"/><path d="M302.84 926.42h-1v-4.7h1zm-.17-26.58h-1v-20.6h1z" fill="#666"/><path d="M302.67 879.26h-1v-.6l.5.1.5-.1zM302.34 941.2l-4.64-14.28h9.27z" fill="#666"/><path d="M302.34 942.8L297 926.43h10.66zm-3.95-15.38l3.94 12.15 3.94-12.15z" fill="#666"/><use xlink:href="#v" transform="matrix(1,0,0,1,294.90845321910416,899.8440754612553) translate(-5.595 15.644444444444446)"/><path d="M683.73 640.5H620.8v-1h62.93zm61.72 0h-47.03v-1h47.03z" fill="#666"/><path d="M620.82 640.5h-.5v-1h.5zM760.22 640l-14.27 4.64v-9.28z" fill="#666"/><path d="M761.84 640l-16.4 5.32v-10.64zm-15.4 3.95L758.6 640l-12.15-3.95z" fill="#666"/><use xlink:href="#v" transform="matrix(1,0,0,1,683.727477347143,629.0666666666667) translate(-5.595 15.644444444444446)"/><path d="M542.84 759.37h-1V748.2h1zm0-33.05h-1v-27.07h1z" fill="#666"/><path d="M542.84 699.26h-1v-.6l.5.1.5-.1zM542.34 774.14l-4.64-14.27h9.27z" fill="#666"/><path d="M542.34 775.76l-5.33-16.4h10.66zm-3.95-15.4l3.94 12.16 3.94-12.15z" fill="#666"/><use xlink:href="#P" transform="matrix(1,0,0,1,533.6948015508467,726.3184454543053) translate(-5.594999999999999 15.644444444444446)"/><path d="M842.84 605.57h-1v-59.02H318.56v-1h524.28zM842.84 606.07h-1v-.5h1zM318.06 550.7l-8.54-2.8v-3.7l8.54-2.78z" fill="#666"/><path d="M318.56 551.38l-9.04-2.94v-1.05l8.04 2.6v-7.9l-8.04 2.62v-1.05l9.04-2.94z" fill="#666"/><g filter="url(#G)"><path d="M222.17 1064.84c0-2.77 2.24-5 5-5h150c2.76 0 5 2.23 5 5v50c0 2.76-2.24 5-5 5h-150c-2.76 0-5-2.24-5-5z" stroke="#666" fill="#d7e9ff"/><use xlink:href="#Q" transform="matrix(1,0,0,1,227.17148760330576,1064.8353200104252) translate(13.745679012345683 28.144444444444446)"/><use xlink:href="#H" transform="matrix(1,0,0,1,227.17148760330576,1064.8353200104252) translate(75.01728395061728 28.144444444444446)"/></g><path d="M302.34 1004.3v27.27h-.17v11.38" stroke="#666" fill="none"/><path d="M302.84 1004.32h-1v-.5h1z" fill="#666"/><path d="M302.17 1057.72l-4.63-14.27h9.27z" stroke="#666" fill="#666"/><g filter="url(#n)"><path d="M298.34 1179.36c2.2-1.65 5.8-1.65 8 0l72 54c2.2 1.66 2.2 4.35 0 6l-72 54c-2.2 1.66-5.8 1.66-8 0l-72-54c-2.2-1.65-2.2-4.34 0-6z" stroke="#666" fill="#f9d2de"/><use xlink:href="#R" transform="matrix(1,0,0,1,227.33677685953205,1181.3637600139002) translate(23.671666666666663 50.019444444444446)"/><use xlink:href="#S" transform="matrix(1,0,0,1,227.33677685953205,1181.3637600139002) translate(80.66549382716049 50.019444444444446)"/><use xlink:href="#T" transform="matrix(1,0,0,1,227.33677685953205,1181.3637600139002) translate(60.76734567901235 68.68611111111112)"/></g><path d="M302.17 1120.84v28.14h.17v12.25" stroke="#666" fill="none"/><path d="M302.67 1120.85h-1v-.5h1z" fill="#666"/><path d="M302.34 1176l-4.64-14.27h9.27z" stroke="#666" fill="#666"/><g filter="url(#G)"><path d="M702.34 1349.65c0-2.76 2.24-5 5-5h150c2.76 0 5 2.24 5 5v50c0 2.76-2.24 5-5 5h-150c-2.76 0-5-2.24-5-5z" stroke="#666" fill="#ffeca9"/><use xlink:href="#U" transform="matrix(1,0,0,1,707.3367768594887,1349.6482100174044) translate(41.44320987654321 18.769444444444446)"/><use xlink:href="#V" transform="matrix(1,0,0,1,707.3367768594887,1349.6482100174044) translate(34.44753086419753 37.43611111111112)"/></g><g filter="url(#G)"><path d="M222.34 1349.65c0-2.76 2.24-5 5-5h150c2.76 0 5 2.24 5 5v50c0 2.76-2.24 5-5 5h-150c-2.76 0-5-2.24-5-5z" stroke="#666" fill="#3aa6dd"/><use xlink:href="#W" transform="matrix(1,0,0,1,227.33677685953205,1349.6482100174044) translate(29.452469135802474 28.144444444444446)"/><use xlink:href="#X" transform="matrix(1,0,0,1,227.33677685953205,1349.6482100174044) translate(80.87222222222223 28.144444444444446)"/></g><g filter="url(#n)"><path d="M538.34 1317.65c2.2-1.66 5.8-1.66 8 0l72 54c2.2 1.66 2.2 4.34 0 6l-72 54c-2.2 1.66-5.8 1.66-8 0l-72-54c-2.2-1.66-2.2-4.34 0-6z" stroke="#666" fill="#f9d2de"/><use xlink:href="#Y" transform="matrix(1,0,0,1,467.33677685948874,1319.6482100174044) translate(43.9370987654321 30.454444444444448)"/><use xlink:href="#Z" transform="matrix(1,0,0,1,467.33677685948874,1319.6482100174044) translate(54.28586419753087 49.12111111111112)"/><use xlink:href="#aa" transform="matrix(1,0,0,1,467.33677685948874,1319.6482100174044) translate(28.792037037037037 67.78777777777779)"/></g><path d="M1081.86 1318.06h-1V820.5H623.34v-1h458.52z" fill="#666"/><path d="M623.35 820.5h-.5v-1h.5zM1081.36 1332.83l-4.64-14.27h9.27z" fill="#666"/><path d="M1081.36 1334.44l-5.33-16.38h10.65zm-3.95-15.38l3.96 12.15 3.94-12.14z" fill="#666"/><g filter="url(#ab)"><path d="M222.17 265c0-2.76 2.24-5 5-5h150c2.76 0 5 2.24 5 5v56.86c0 2.76-2.24 5-5 5h-150c-2.76 0-5-2.24-5-5z" stroke="#666" fill="#d7e9ff"/><use xlink:href="#D" transform="matrix(1,0,0,1,227.17148760330576,265) translate(18.54197530864198 29.894444444444446)"/><use xlink:href="#E" transform="matrix(1,0,0,1,227.17148760330576,265) translate(53.93086419753087 29.894444444444446)"/></g><path d="M302.17 220.9v22.22" stroke="#666" fill="none"/><path d="M302.67 220.92h-1v-.5h1z" fill="#666"/><path d="M302.17 257.88l-4.63-14.26h9.27z" stroke="#666" fill="#666"/><g filter="url(#G)"><path d="M462.34 1505c0-2.76 2.24-5 5-5h150c2.76 0 5 2.24 5 5v50c0 2.76-2.24 5-5 5h-150c-2.76 0-5-2.24-5-5z" stroke="#666" fill="#3aa6dd"/><use xlink:href="#ac" transform="matrix(1,0,0,1,467.33677685948874,1505) translate(40.967901234567904 18.769444444444446)"/><use xlink:href="#ad" transform="matrix(1,0,0,1,467.33677685948874,1505) translate(33.97222222222223 37.43611111111112)"/></g><path d="M302.84 1308.7h-1v-13.1h1z" fill="#666"/><path d="M302.84 1295.62h-1v-.58l.5.07.5-.06zM302.34 1342.53l-3.9-11.97h7.8z" fill="#666"/><path d="M302.34 1344.15l-4.42-13.6h1.05l3.37 10.36 3.36-10.34h1.05z" fill="#666"/><use xlink:href="#v" transform="matrix(1,0,0,1,294.9910978471864,1308.6966204734326) translate(-5.595 15.644444444444446)"/><path d="M782.84 1327.76h-1v-90.9H643.86v-1h138.98zm-402.03-90.9v-1h245.77v1z" fill="#666"/><path d="M380.82 1236.86h-.5v-1h.5zM782.34 1342.53l-4.64-14.27h9.27z" fill="#666"/><path d="M782.34 1344.15l-5.33-16.4h10.66zm-3.95-15.4l3.94 12.16 3.94-12.14z" fill="#666"/><use xlink:href="#P" transform="matrix(1,0,0,1,626.5734060526204,1225.4304266805668) translate(-5.594999999999999 15.644444444444446)"/><path d="M383.34 1374.65h64.64" stroke="#666" fill="none"/><path d="M383.35 1375.15h-.5v-1h.5z" fill="#666"/><path d="M462.75 1374.65l-14.27 4.63V1370z" stroke="#666" fill="#666"/><path d="M542.84 1483.12h-1v-5.74h1zm0-27.6h-1v-21.62h1zM542.84 1433.9h-1v-.58l.5.08.5-.08zM542.34 1497.88l-4.64-14.26h9.27z" fill="#666"/><path d="M542.34 1499.5l-5.33-16.38h10.66zm-3.95-15.38l3.94 12.14 3.94-12.14z" fill="#666"/><use xlink:href="#v" transform="matrix(1,0,0,1,534.991097847143,1455.5147404664824) translate(-5.595 15.644444444444446)"/><path d="M652.43 1375.15H620.8v-1h31.63zm33.02 0h-15.73v-1h15.73z" fill="#666"/><path d="M620.82 1375.15h-.5v-1h.5zM700.22 1374.65l-14.27 4.63V1370z" fill="#666"/><path d="M701.84 1374.65l-16.4 5.32v-10.65zm-15.4 3.95l12.16-3.95-12.15-3.95z" fill="#666"/><use xlink:href="#P" transform="matrix(1,0,0,1,652.4311810508467,1363.714876684071) translate(-5.594999999999999 15.644444444444446)"/><path d="M782.84 1530.5h-159.5v-1h158.5v-107.97h1z" fill="#666"/><path d="M623.35 1530.5h-.5v-1h.5zM786.97 1421.03h-9.27l4.64-14.26z" fill="#666"/><path d="M787.66 1421.53H777l5.34-16.38zm-9.27-1h7.88l-3.94-12.15z" fill="#666"/><path d="M863.34 1374.65h99.46" stroke="#666" fill="none"/><path d="M863.35 1375.15h-.5v-1h.5z" fill="#666"/><path d="M977.57 1374.65l-14.27 4.63V1370z" stroke="#666" fill="#666"/><path d="M412.35 820.5h-31.7v-1h31.7zm33.1 0h-15.82v-1h15.82z" fill="#666"/><path d="M380.66 820.5h-.52v-1h.52zM460.22 820l-14.27 4.64v-9.28z" fill="#666"/><path d="M461.84 820l-16.4 5.32v-10.64zm-15.4 3.95L458.6 820l-12.15-3.95z" fill="#666"/><use xlink:href="#P" transform="matrix(1,0,0,1,412.3485364227707,809.0666666666667) translate(-5.594999999999999 15.644444444444446)"/><path d="M413.6 640.5h-32.96v-1h32.97zm34.38 0H430.9v-1h17.08z" fill="#666"/><path d="M380.66 640.5h-.52v-1h.52zM462.75 640l-14.27 4.64v-9.28z" fill="#666"/><path d="M464.36 640l-16.38 5.32v-10.64zm-15.38 3.95l12.15-3.95-12.15-3.95z" fill="#666"/><g><use xlink:href="#P" transform="matrix(1,0,0,1,413.6121569227553,629.0666666666667) translate(-5.594999999999999 15.644444444444446)"/></g><path d="M412.35 460.5h-31.7v-1h31.7zm33.1 0h-15.82v-1h15.82z" fill="#666"/><path d="M380.66 460.5h-.52v-1h.52zM460.22 460l-14.27 4.64v-9.28z" fill="#666"/><path d="M461.84 460l-16.4 5.32v-10.64zm-15.4 3.95L458.6 460l-12.15-3.95z" fill="#666"/><g><use xlink:href="#P" transform="matrix(1,0,0,1,412.3485364227553,449.06666666666666) translate(-5.594999999999999 15.644444444444446)"/></g><defs><path fill="#fff" d="M33 0v-248h34V0H33" id="ae"/><path fill="#fff" d="M117-194c89-4 53 116 60 194h-32v-121c0-31-8-49-39-48C34-167 62-67 57 0H25l-1-190h30c1 10-1 24 2 32 11-22 29-35 61-36" id="af"/><path fill="#fff" d="M24-231v-30h32v30H24zM24 0v-190h32V0H24" id="ag"/><path fill="#fff" d="M96-169c-40 0-48 33-48 73s9 75 48 75c24 0 41-14 43-38l32 2c-6 37-31 61-74 61-59 0-76-41-82-99-10-93 101-131 147-64 4 7 5 14 7 22l-32 3c-4-21-16-35-41-35" id="ah"/><path fill="#fff" d="M100-194c62-1 85 37 85 99 1 63-27 99-86 99S16-35 15-95c0-66 28-99 85-99zM99-20c44 1 53-31 53-75 0-43-8-75-51-75s-53 32-53 75 10 74 51 75" id="ai"/><g id="b"><use transform="matrix(0.05555555555555555,0,0,0.05555555555555555,0,0)" xlink:href="#ae"/><use transform="matrix(0.05555555555555555,0,0,0.05555555555555555,5.555555555555555,0)" xlink:href="#af"/><use transform="matrix(0.05555555555555555,0,0,0.05555555555555555,16.666666666666664,0)" xlink:href="#ag"/><use transform="matrix(0.05555555555555555,0,0,0.05555555555555555,21.055555555555554,0)" xlink:href="#ah"/><use transform="matrix(0.05555555555555555,0,0,0.05555555555555555,31.055555555555554,0)" xlink:href="#ag"/><use transform="matrix(0.05555555555555555,0,0,0.05555555555555555,35.44444444444444,0)" xlink:href="#ai"/></g><filter id="a" filterUnits="objectBoundingBox" x="-.02" y="-.12" width="1.1" height="1.25"><feOffset result="offOut" in="SourceAlpha" dx="6" dy=".1"/><feGaussianBlur result="blurOut" in="offOut" stdDeviation="5"/><feColorMatrix result="colorOut" in="blurOut" values="0 0 0 0 0 0 0 0 0 0 0 0 0 0 0 0 0 0 0.16862745098039217 0"/><feBlend in="SourceGraphic" in2="colorOut"/></filter><path fill="#333" d="M230 0l2-204L168 0h-37L68-204 70 0H24v-248h70l56 185 57-185h69V0h-46" id="aj"/><path fill="#333" d="M88-194c31-1 46 15 58 34l-1-101h50l1 261h-48c-2-10 0-23-3-31C134-8 116 4 84 4 32 4 16-41 15-95c0-56 19-97 73-99zm17 164c33 0 40-30 41-66 1-37-9-64-41-64s-38 30-39 65c0 43 13 65 39 65" id="ak"/><path fill="#333" d="M24 0v-248h52v208h133V0H24" id="al"/><path fill="#333" d="M25-224v-37h50v37H25zM25 0v-190h50V0H25" id="am"/><path fill="#333" d="M135-194c87-1 58 113 63 194h-50c-7-57 23-157-34-157-59 0-34 97-39 157H25l-1-190h47c2 12-1 28 3 38 12-26 28-41 61-42" id="an"/><path fill="#333" d="M147 0L96-86 75-71V0H25v-261h50v150l67-79h53l-66 74L201 0h-54" id="ao"/><g id="c"><use transform="matrix(0.0728395061728395,0,0,0.0728395061728395,0,0)" xlink:href="#aj"/><use transform="matrix(0.0728395061728395,0,0,0.0728395061728395,21.77901234567901,0)" xlink:href="#ak"/><use transform="matrix(0.0728395061728395,0,0,0.0728395061728395,37.73086419753086,0)" xlink:href="#al"/><use transform="matrix(0.0728395061728395,0,0,0.0728395061728395,53.68271604938271,0)" xlink:href="#am"/><use transform="matrix(0.0728395061728395,0,0,0.0728395061728395,60.966666666666654,0)" xlink:href="#an"/><use transform="matrix(0.0728395061728395,0,0,0.0728395061728395,76.91851851851851,0)" xlink:href="#ao"/></g><path fill="#333" d="M30 0v-248h33v221h125V0H30" id="ap"/><path fill="#333" d="M24-231v-30h32v30H24zM24 0v-190h32V0H24" id="aq"/><path fill="#333" d="M24 0v-261h32V0H24" id="ar"/><path fill="#333" d="M141-36C126-15 110 5 73 4 37 3 15-17 15-53c-1-64 63-63 125-63 3-35-9-54-41-54-24 1-41 7-42 31l-33-3c5-37 33-52 76-52 45 0 72 20 72 64v82c-1 20 7 32 28 27v20c-31 9-61-2-59-35zM48-53c0 20 12 33 32 33 41-3 63-29 60-74-43 2-92-5-92 41" id="as"/><path fill="#333" d="M117-194c89-4 53 116 60 194h-32v-121c0-31-8-49-39-48C34-167 62-67 57 0H25l-1-190h30c1 10-1 24 2 32 11-22 29-35 61-36" id="at"/><g id="d"><use transform="matrix(0.04248971193415638,0,0,0.04248971193415638,0,0)" xlink:href="#ap"/><use transform="matrix(0.04248971193415638,0,0,0.04248971193415638,8.497942386831275,0)" xlink:href="#aq"/><use transform="matrix(0.04248971193415638,0,0,0.04248971193415638,11.854629629629626,0)" xlink:href="#ar"/><use transform="matrix(0.04248971193415638,0,0,0.04248971193415638,15.211316872427982,0)" xlink:href="#aq"/><use transform="matrix(0.04248971193415638,0,0,0.04248971193415638,18.568004115226337,0)" xlink:href="#as"/><use transform="matrix(0.04248971193415638,0,0,0.04248971193415638,27.065946502057614,0)" xlink:href="#at"/></g><path fill="#333" d="M137-103V0h-34v-103L8-248h37l75 118 75-118h37" id="au"/><use transform="matrix(0.04248971193415638,0,0,0.04248971193415638,0,0)" xlink:href="#au" id="e"/><path fill="#333" d="M205 0l-28-72H64L36 0H1l101-248h38L239 0h-34zm-38-99l-47-123c-12 45-31 82-46 123h93" id="av"/><use transform="matrix(0.04248971193415638,0,0,0.04248971193415638,0,0)" xlink:href="#av" id="f"/><path fill="#333" d="M185-189c-5-48-123-54-124 2 14 75 158 14 163 119 3 78-121 87-175 55-17-10-28-26-33-46l33-7c5 56 141 63 141-1 0-78-155-14-162-118-5-82 145-84 179-34 5 7 8 16 11 25" id="aw"/><use transform="matrix(0.04248971193415638,0,0,0.04248971193415638,0,0)" xlink:href="#aw" id="g"/><path fill="#333" d="M32 76v-337h29V76H32" id="ax"/><use transform="matrix(0.04248971193415638,0,0,0.04248971193415638,0,0)" xlink:href="#ax" id="h"/><path fill="#333" d="M63-220v92h138v28H63V0H30v-248h175v28H63" id="ay"/><path fill="#333" d="M100-194c63 0 86 42 84 106H49c0 40 14 67 53 68 26 1 43-12 49-29l28 8c-11 28-37 45-77 45C44 4 14-33 15-96c1-61 26-98 85-98zm52 81c6-60-76-77-97-28-3 7-6 17-6 28h103" id="az"/><path fill="#333" d="M115-194c53 0 69 39 70 98 0 66-23 100-70 100C84 3 66-7 56-30L54 0H23l1-261h32v101c10-23 28-34 59-34zm-8 174c40 0 45-34 45-75 0-40-5-75-45-74-42 0-51 32-51 76 0 43 10 73 51 73" id="aA"/><path fill="#333" d="M114-163C36-179 61-72 57 0H25l-1-190h30c1 12-1 29 2 39 6-27 23-49 58-41v29" id="aB"/><path fill="#333" d="M84 4C-5 8 30-112 23-190h32v120c0 31 7 50 39 49 72-2 45-101 50-169h31l1 190h-30c-1-10 1-25-2-33-11 22-28 36-60 37" id="aC"/><path fill="#333" d="M179-190L93 31C79 59 56 82 12 73V49c39 6 53-20 64-50L1-190h34L92-34l54-156h33" id="aD"/><g id="i"><use transform="matrix(0.04248971193415638,0,0,0.04248971193415638,0,0)" xlink:href="#ay"/><use transform="matrix(0.04248971193415638,0,0,0.04248971193415638,9.305246913580246,0)" xlink:href="#az"/><use transform="matrix(0.04248971193415638,0,0,0.04248971193415638,17.80318930041152,0)" xlink:href="#aA"/><use transform="matrix(0.04248971193415638,0,0,0.04248971193415638,26.301131687242794,0)" xlink:href="#aB"/><use transform="matrix(0.04248971193415638,0,0,0.04248971193415638,31.357407407407408,0)" xlink:href="#aC"/><use transform="matrix(0.04248971193415638,0,0,0.04248971193415638,39.85534979423868,0)" xlink:href="#as"/><use transform="matrix(0.04248971193415638,0,0,0.04248971193415638,48.35329218106995,0)" xlink:href="#aB"/><use transform="matrix(0.04248971193415638,0,0,0.04248971193415638,53.40956790123455,0)" xlink:href="#aD"/></g><path fill="#333" d="M27 0v-27h64v-190l-56 39v-29l58-41h29v221h61V0H27" id="aE"/><path fill="#333" d="M99-251c64 0 84 50 84 122C183-37 130 33 47-8c-14-7-20-23-25-40l30-5c6 39 69 39 84 7 9-19 16-44 16-74-10 22-31 35-62 35-49 0-73-33-73-83 0-54 28-83 82-83zm-1 141c31-1 51-18 51-49 0-36-14-67-51-67-34 0-49 23-49 58 0 34 15 58 49 58" id="aF"/><path fill="#333" d="M68-38c1 34 0 65-14 84H32c9-13 17-26 17-46H33v-38h35" id="aG"/><g id="j"><use transform="matrix(0.04248971193415638,0,0,0.04248971193415638,0,0)" xlink:href="#aE"/><use transform="matrix(0.04248971193415638,0,0,0.04248971193415638,8.497942386831275,0)" xlink:href="#aF"/><use transform="matrix(0.04248971193415638,0,0,0.04248971193415638,16.99588477366255,0)" xlink:href="#aG"/></g><path fill="#333" d="M101-251c82-7 93 87 43 132L82-64C71-53 59-42 53-27h129V0H18c2-99 128-94 128-182 0-28-16-43-45-43s-46 15-49 41l-32-3c6-41 34-60 81-64" id="aH"/><path fill="#333" d="M101-251c68 0 85 55 85 127S166 4 100 4C33 4 14-52 14-124c0-73 17-127 87-127zm-1 229c47 0 54-49 54-102s-4-102-53-102c-51 0-55 48-55 102 0 53 5 102 54 102" id="aI"/><g id="k"><use transform="matrix(0.04248971193415638,0,0,0.04248971193415638,0,0)" xlink:href="#aH"/><use transform="matrix(0.04248971193415638,0,0,0.04248971193415638,8.497942386831275,0)" xlink:href="#aI"/><use transform="matrix(0.04248971193415638,0,0,0.04248971193415638,16.99588477366255,0)" xlink:href="#aH"/><use transform="matrix(0.04248971193415638,0,0,0.04248971193415638,25.493827160493822,0)" xlink:href="#aI"/></g><path fill="#333" d="M30 0v-248h187v28H63v79h144v27H63v87h162V0H30" id="aJ"/><path fill="#333" d="M85-194c31 0 48 13 60 33l-1-100h32l1 261h-30c-2-10 0-23-3-31C134-8 116 4 85 4 32 4 16-35 15-94c0-66 23-100 70-100zm9 24c-40 0-46 34-46 75 0 40 6 74 45 74 42 0 51-32 51-76 0-42-9-74-50-73" id="aK"/><g id="m"><use transform="matrix(0.05555555555555555,0,0,0.05555555555555555,0,0)" xlink:href="#aJ"/><use transform="matrix(0.05555555555555555,0,0,0.05555555555555555,13.333333333333332,0)" xlink:href="#at"/><use transform="matrix(0.05555555555555555,0,0,0.05555555555555555,24.444444444444443,0)" xlink:href="#aK"/></g><filter id="l" filterUnits="objectBoundingBox" x="-.02" y="-.12" width="1.1" height="1.25"><feOffset result="offOut" in="SourceAlpha" dx="5.99" dy=".42"/><feGaussianBlur result="blurOut" in="offOut" stdDeviation="5"/><feColorMatrix result="colorOut" in="blurOut" values="0 0 0 0 0 0 0 0 0 0 0 0 0 0 0 0 0 0 0.16862745098039217 0"/><feBlend in="SourceGraphic" in2="colorOut"/></filter><path d="M107 61C57 61 25 39 23-9c-2-65 71-58 78-115h30c1 64-76 54-76 114 0 30 21 42 52 43 32 0 53-17 56-46l32 2c-6 46-36 72-88 72zm26-251v35H99v-35h34" id="aL"/><path d="M30 0v-248h33v221h125V0H30" id="aM"/><path d="M141-36C126-15 110 5 73 4 37 3 15-17 15-53c-1-64 63-63 125-63 3-35-9-54-41-54-24 1-41 7-42 31l-33-3c5-37 33-52 76-52 45 0 72 20 72 64v82c-1 20 7 32 28 27v20c-31 9-61-2-59-35zM48-53c0 20 12 33 32 33 41-3 63-29 60-74-43 2-92-5-92 41" id="aN"/><g id="o"><use transform="matrix(0.04320987654320988,0,0,0.04320987654320988,0,0)" xlink:href="#aL"/><use transform="matrix(0.04320987654320988,0,0,0.04320987654320988,9.462962962962964,0)" xlink:href="#aM"/><use transform="matrix(0.04320987654320988,0,0,0.04320987654320988,18.10493827160494,0)" xlink:href="#aN"/></g><path d="M114-163C36-179 61-72 57 0H25l-1-190h30c1 12-1 29 2 39 6-27 23-49 58-41v29" id="aO"/><path d="M84 4C-5 8 30-112 23-190h32v120c0 31 7 50 39 49 72-2 45-101 50-169h31l1 190h-30c-1-10 1-25-2-33-11 22-28 36-60 37" id="aP"/><path d="M59-47c-2 24 18 29 38 22v24C64 9 27 4 27-40v-127H5v-23h24l9-43h21v43h35v23H59v120" id="aQ"/><g id="p"><use transform="matrix(0.04320987654320988,0,0,0.04320987654320988,0,0)" xlink:href="#aO"/><use transform="matrix(0.04320987654320988,0,0,0.04320987654320988,5.1419753086419755,0)" xlink:href="#aP"/><use transform="matrix(0.04320987654320988,0,0,0.04320987654320988,13.783950617283953,0)" xlink:href="#aQ"/><use transform="matrix(0.04320987654320988,0,0,0.04320987654320988,18.10493827160494,0)" xlink:href="#aN"/></g><path d="M100-194c63 0 86 42 84 106H49c0 40 14 67 53 68 26 1 43-12 49-29l28 8c-11 28-37 45-77 45C44 4 14-33 15-96c1-61 26-98 85-98zm52 81c6-60-76-77-97-28-3 7-6 17-6 28h103" id="aR"/><path d="M135-143c-3-34-86-38-87 0 15 53 115 12 119 90S17 21 10-45l28-5c4 36 97 45 98 0-10-56-113-15-118-90-4-57 82-63 122-42 12 7 21 19 24 35" id="aS"/><g id="q"><use transform="matrix(0.04320987654320988,0,0,0.04320987654320988,0,0)" xlink:href="#aR"/><use transform="matrix(0.04320987654320988,0,0,0.04320987654320988,8.641975308641976,0)" xlink:href="#aS"/></g><path d="M205 0l-28-72H64L36 0H1l101-248h38L239 0h-34zm-38-99l-47-123c-12 45-31 82-46 123h93" id="aT"/><path d="M115-194c53 0 69 39 70 98 0 66-23 100-70 100C84 3 66-7 56-30L54 0H23l1-261h32v101c10-23 28-34 59-34zm-8 174c40 0 45-34 45-75 0-40-5-75-45-74-42 0-51 32-51 76 0 43 10 73 51 73" id="aU"/><path d="M100-194c62-1 85 37 85 99 1 63-27 99-86 99S16-35 15-95c0-66 28-99 85-99zM99-20c44 1 53-31 53-75 0-43-8-75-51-75s-53 32-53 75 10 74 51 75" id="aV"/><path d="M24 0v-261h32V0H24" id="aW"/><path d="M103-251c84 0 111 97 45 133-19 10-37 24-39 52H78c0-63 77-55 77-114 0-30-21-42-52-43-32 0-53 17-56 46l-32-2c7-45 34-72 88-72zM77 0v-35h34V0H77" id="aX"/><g id="r"><use transform="matrix(0.04320987654320988,0,0,0.04320987654320988,0,0)" xlink:href="#aT"/><use transform="matrix(0.04320987654320988,0,0,0.04320987654320988,10.370370370370372,0)" xlink:href="#aU"/><use transform="matrix(0.04320987654320988,0,0,0.04320987654320988,19.01234567901235,0)" xlink:href="#aS"/><use transform="matrix(0.04320987654320988,0,0,0.04320987654320988,26.790123456790127,0)" xlink:href="#aV"/><use transform="matrix(0.04320987654320988,0,0,0.04320987654320988,35.4320987654321,0)" xlink:href="#aW"/><use transform="matrix(0.04320987654320988,0,0,0.04320987654320988,38.845679012345684,0)" xlink:href="#aP"/><use transform="matrix(0.04320987654320988,0,0,0.04320987654320988,47.48765432098766,0)" xlink:href="#aQ"/><use transform="matrix(0.04320987654320988,0,0,0.04320987654320988,51.808641975308646,0)" xlink:href="#aN"/><use transform="matrix(0.04320987654320988,0,0,0.04320987654320988,60.45061728395062,0)" xlink:href="#aX"/></g><filter id="n" filterUnits="objectBoundingBox" x="-.03" y="-.08" width="1.13" height="1.17"><feOffset result="offOut" in="SourceAlpha" dx="5.99" dy=".42"/><feGaussianBlur result="blurOut" in="offOut" stdDeviation="5"/><feColorMatrix result="colorOut" in="blurOut" values="0 0 0 0 0 0 0 0 0 0 0 0 0 0 0 0 0 0 0.16862745098039217 0"/><feBlend in="SourceGraphic" in2="colorOut"/></filter><path d="M30 0v-248h187v28H63v79h144v27H63v87h162V0H30" id="aY"/><g id="s"><use transform="matrix(0.04320987654320988,0,0,0.04320987654320988,0,0)" xlink:href="#aL"/><use transform="matrix(0.04320987654320988,0,0,0.04320987654320988,9.462962962962964,0)" xlink:href="#aY"/><use transform="matrix(0.04320987654320988,0,0,0.04320987654320988,19.833333333333336,0)" xlink:href="#aS"/></g><path d="M117-194c89-4 53 116 60 194h-32v-121c0-31-8-49-39-48C34-167 62-67 57 0H25l-1-190h30c1 10-1 24 2 32 11-22 29-35 61-36" id="aZ"/><g id="t"><use transform="matrix(0.04320987654320988,0,0,0.04320987654320988,0,0)" xlink:href="#aP"/><use transform="matrix(0.04320987654320988,0,0,0.04320987654320988,8.641975308641976,0)" xlink:href="#aZ"/></g><path d="M96-169c-40 0-48 33-48 73s9 75 48 75c24 0 41-14 43-38l32 2c-6 37-31 61-74 61-59 0-76-41-82-99-10-93 101-131 147-64 4 7 5 14 7 22l-32 3c-4-21-16-35-41-35" id="ba"/><path d="M106-169C34-169 62-67 57 0H25v-261h32l-1 103c12-21 28-36 61-36 89 0 53 116 60 194h-32v-121c2-32-8-49-39-48" id="bb"/><path d="M24-231v-30h32v30H24zM24 0v-190h32V0H24" id="bc"/><g id="u"><use transform="matrix(0.04320987654320988,0,0,0.04320987654320988,0,0)" xlink:href="#aN"/><use transform="matrix(0.04320987654320988,0,0,0.04320987654320988,8.641975308641976,0)" xlink:href="#aO"/><use transform="matrix(0.04320987654320988,0,0,0.04320987654320988,13.783950617283953,0)" xlink:href="#ba"/><use transform="matrix(0.04320987654320988,0,0,0.04320987654320988,21.56172839506173,0)" xlink:href="#bb"/><use transform="matrix(0.04320987654320988,0,0,0.04320987654320988,30.203703703703713,0)" xlink:href="#bc"/><use transform="matrix(0.04320987654320988,0,0,0.04320987654320988,33.61728395061729,0)" xlink:href="#aU"/><use transform="matrix(0.04320987654320988,0,0,0.04320987654320988,42.25925925925927,0)" xlink:href="#aV"/><use transform="matrix(0.04320987654320988,0,0,0.04320987654320988,50.90123456790124,0)" xlink:href="#aX"/></g><path d="M185-189c-5-48-123-54-124 2 14 75 158 14 163 119 3 78-121 87-175 55-17-10-28-26-33-46l33-7c5 56 141 63 141-1 0-78-155-14-162-118-5-82 145-84 179-34 5 7 8 16 11 25" id="bd"/><path d="M34 0v-190h32V0H34zM24-211c8-23 27-35 38-54h36v5l-58 49H24" id="be"/><g id="v"><use transform="matrix(0.04320987654320988,0,0,0.04320987654320988,0,0)" xlink:href="#bd"/><use transform="matrix(0.04320987654320988,0,0,0.04320987654320988,10.370370370370372,0)" xlink:href="#be"/></g><path d="M233-177c-1 41-23 64-60 70L243 0h-38l-65-103H63V0H30v-248c88 3 205-21 203 71zM63-129c60-2 137 13 137-47 0-61-80-42-137-45v92" id="bf"/><path d="M108 0H70L1-190h34L89-25l56-165h34" id="bg"/><g id="x"><use transform="matrix(0.04320987654320988,0,0,0.04320987654320988,0,0)" xlink:href="#bf"/><use transform="matrix(0.04320987654320988,0,0,0.04320987654320988,11.19135802469136,0)" xlink:href="#aR"/><use transform="matrix(0.04320987654320988,0,0,0.04320987654320988,19.833333333333336,0)" xlink:href="#aS"/><use transform="matrix(0.04320987654320988,0,0,0.04320987654320988,27.611111111111114,0)" xlink:href="#aV"/><use transform="matrix(0.04320987654320988,0,0,0.04320987654320988,36.25308641975309,0)" xlink:href="#aW"/><use transform="matrix(0.04320987654320988,0,0,0.04320987654320988,39.66666666666667,0)" xlink:href="#bg"/><use transform="matrix(0.04320987654320988,0,0,0.04320987654320988,47.44444444444445,0)" xlink:href="#aR"/><use transform="matrix(0.04320987654320988,0,0,0.04320987654320988,56.086419753086425,0)" xlink:href="#aO"/></g><path d="M145-31C134-9 116 4 85 4 32 4 16-35 15-94c0-59 17-99 70-100 32-1 48 14 60 33 0-11-1-24 2-32h30l-1 268h-32zM93-21c41 0 51-33 51-76s-8-73-50-73c-40 0-46 35-46 75s5 74 45 74" id="bh"/><g id="y"><use transform="matrix(0.04320987654320988,0,0,0.04320987654320988,0,0)" xlink:href="#bh"/><use transform="matrix(0.04320987654320988,0,0,0.04320987654320988,8.641975308641976,0)" xlink:href="#aP"/><use transform="matrix(0.04320987654320988,0,0,0.04320987654320988,17.283950617283953,0)" xlink:href="#aR"/></g><g id="z"><use transform="matrix(0.04320987654320988,0,0,0.04320987654320988,0,0)" xlink:href="#aW"/><use transform="matrix(0.04320987654320988,0,0,0.04320987654320988,3.4135802469135808,0)" xlink:href="#aN"/></g><g id="A"><use transform="matrix(0.04320987654320988,0,0,0.04320987654320988,0,0)" xlink:href="#aS"/><use transform="matrix(0.04320987654320988,0,0,0.04320987654320988,7.777777777777779,0)" xlink:href="#aR"/><use transform="matrix(0.04320987654320988,0,0,0.04320987654320988,16.419753086419753,0)" xlink:href="#aN"/></g><g id="B"><use transform="matrix(0.04320987654320988,0,0,0.04320987654320988,0,0)" xlink:href="#aT"/><use transform="matrix(0.04320987654320988,0,0,0.04320987654320988,10.370370370370372,0)" xlink:href="#aU"/><use transform="matrix(0.04320987654320988,0,0,0.04320987654320988,19.01234567901235,0)" xlink:href="#aS"/><use transform="matrix(0.04320987654320988,0,0,0.04320987654320988,26.790123456790127,0)" xlink:href="#aV"/><use transform="matrix(0.04320987654320988,0,0,0.04320987654320988,35.4320987654321,0)" xlink:href="#aW"/><use transform="matrix(0.04320987654320988,0,0,0.04320987654320988,38.845679012345684,0)" xlink:href="#aP"/><use transform="matrix(0.04320987654320988,0,0,0.04320987654320988,47.48765432098766,0)" xlink:href="#aQ"/><use transform="matrix(0.04320987654320988,0,0,0.04320987654320988,51.808641975308646,0)" xlink:href="#aN"/></g><filter id="w" filterUnits="objectBoundingBox" x="-.03" y="-.11" width="1.13" height="1.23"><feOffset result="offOut" in="SourceAlpha" dx="6" dy=".1"/><feGaussianBlur result="blurOut" in="offOut" stdDeviation="5"/><feColorMatrix result="colorOut" in="blurOut" values="0 0 0 0 0 0 0 0 0 0 0 0 0 0 0 0 0 0 0.16862745098039217 0"/><feBlend in="SourceGraphic" in2="colorOut"/></filter><g id="D"><use transform="matrix(0.04320987654320988,0,0,0.04320987654320988,0,0)" xlink:href="#aM"/><use transform="matrix(0.04320987654320988,0,0,0.04320987654320988,8.641975308641976,0)" xlink:href="#aR"/><use transform="matrix(0.04320987654320988,0,0,0.04320987654320988,17.283950617283953,0)" xlink:href="#aR"/><use transform="matrix(0.04320987654320988,0,0,0.04320987654320988,25.925925925925927,0)" xlink:href="#aO"/></g><path d="M30-248c118-7 216 8 213 122C240-48 200 0 122 0H30v-248zM63-27c89 8 146-16 146-99s-60-101-146-95v194" id="bi"/><g id="E"><use transform="matrix(0.04320987654320988,0,0,0.04320987654320988,0,0)" xlink:href="#bi"/><use transform="matrix(0.04320987654320988,0,0,0.04320987654320988,11.19135802469136,0)" xlink:href="#bc"/><use transform="matrix(0.04320987654320988,0,0,0.04320987654320988,14.60493827160494,0)" xlink:href="#aO"/><use transform="matrix(0.04320987654320988,0,0,0.04320987654320988,19.746913580246915,0)" xlink:href="#aR"/><use transform="matrix(0.04320987654320988,0,0,0.04320987654320988,28.388888888888893,0)" xlink:href="#ba"/><use transform="matrix(0.04320987654320988,0,0,0.04320987654320988,36.16666666666667,0)" xlink:href="#aQ"/><use transform="matrix(0.04320987654320988,0,0,0.04320987654320988,40.48765432098766,0)" xlink:href="#aV"/><use transform="matrix(0.04320987654320988,0,0,0.04320987654320988,49.12962962962963,0)" xlink:href="#aO"/><use transform="matrix(0.04320987654320988,0,0,0.04320987654320988,54.27160493827161,0)" xlink:href="#bc"/><use transform="matrix(0.04320987654320988,0,0,0.04320987654320988,57.68518518518519,0)" xlink:href="#aV"/></g><filter id="C" filterUnits="objectBoundingBox" x="-.03" y="-.14" width="1.13" height="1.3"><feOffset result="offOut" in="SourceAlpha" dx="5.99" dy=".42"/><feGaussianBlur result="blurOut" in="offOut" stdDeviation="5"/><feColorMatrix result="colorOut" in="blurOut" values="0 0 0 0 0 0 0 0 0 0 0 0 0 0 0 0 0 0 0.16862745098039217 0"/><feBlend in="SourceGraphic" in2="colorOut"/></filter><g id="F"><use transform="matrix(0.04320987654320988,0,0,0.04320987654320988,0,0)" xlink:href="#bi"/><use transform="matrix(0.04320987654320988,0,0,0.04320987654320988,11.19135802469136,0)" xlink:href="#bc"/><use transform="matrix(0.04320987654320988,0,0,0.04320987654320988,14.60493827160494,0)" xlink:href="#aO"/><use transform="matrix(0.04320987654320988,0,0,0.04320987654320988,19.746913580246915,0)" xlink:href="#aR"/><use transform="matrix(0.04320987654320988,0,0,0.04320987654320988,28.388888888888893,0)" xlink:href="#ba"/><use transform="matrix(0.04320987654320988,0,0,0.04320987654320988,36.16666666666667,0)" xlink:href="#aQ"/><use transform="matrix(0.04320987654320988,0,0,0.04320987654320988,40.48765432098766,0)" xlink:href="#aV"/><use transform="matrix(0.04320987654320988,0,0,0.04320987654320988,49.12962962962963,0)" xlink:href="#aO"/><use transform="matrix(0.04320987654320988,0,0,0.04320987654320988,54.27160493827161,0)" xlink:href="#bc"/><use transform="matrix(0.04320987654320988,0,0,0.04320987654320988,57.68518518518519,0)" xlink:href="#aV"/><use transform="matrix(0.04320987654320988,0,0,0.04320987654320988,66.32716049382717,0)" xlink:href="#aX"/></g><g id="H"><use transform="matrix(0.04320987654320988,0,0,0.04320987654320988,0,0)" xlink:href="#aN"/><use transform="matrix(0.04320987654320988,0,0,0.04320987654320988,8.641975308641976,0)" xlink:href="#aO"/><use transform="matrix(0.04320987654320988,0,0,0.04320987654320988,13.783950617283953,0)" xlink:href="#ba"/><use transform="matrix(0.04320987654320988,0,0,0.04320987654320988,21.56172839506173,0)" xlink:href="#bb"/><use transform="matrix(0.04320987654320988,0,0,0.04320987654320988,30.203703703703713,0)" xlink:href="#bc"/><use transform="matrix(0.04320987654320988,0,0,0.04320987654320988,33.61728395061729,0)" xlink:href="#bg"/><use transform="matrix(0.04320987654320988,0,0,0.04320987654320988,41.39506172839507,0)" xlink:href="#aV"/></g><filter id="G" filterUnits="objectBoundingBox" x="-.03" y="-.16" width="1.13" height="1.33"><feOffset result="offOut" in="SourceAlpha" dx="5.99" dy=".42"/><feGaussianBlur result="blurOut" in="offOut" stdDeviation="5"/><feColorMatrix result="colorOut" in="blurOut" values="0 0 0 0 0 0 0 0 0 0 0 0 0 0 0 0 0 0 0.16862745098039217 0"/><feBlend in="SourceGraphic" in2="colorOut"/></filter><path d="M33 0v-248h34V0H33" id="bj"/><path d="M210-169c-67 3-38 105-44 169h-31v-121c0-29-5-50-35-48C34-165 62-65 56 0H25l-1-190h30c1 10-1 24 2 32 10-44 99-50 107 0 11-21 27-35 58-36 85-2 47 119 55 194h-31v-121c0-29-5-49-35-48" id="bk"/><path d="M115-194c55 1 70 41 70 98S169 2 115 4C84 4 66-9 55-30l1 105H24l-1-265h31l2 30c10-21 28-34 59-34zm-8 174c40 0 45-34 45-75s-6-73-45-74c-42 0-51 32-51 76 0 43 10 73 51 73" id="bl"/><g id="J"><use transform="matrix(0.04320987654320988,0,0,0.04320987654320988,0,0)" xlink:href="#bj"/><use transform="matrix(0.04320987654320988,0,0,0.04320987654320988,4.320987654320988,0)" xlink:href="#bk"/><use transform="matrix(0.04320987654320988,0,0,0.04320987654320988,17.240740740740744,0)" xlink:href="#bl"/><use transform="matrix(0.04320987654320988,0,0,0.04320987654320988,25.882716049382722,0)" xlink:href="#aO"/><use transform="matrix(0.04320987654320988,0,0,0.04320987654320988,31.024691358024693,0)" xlink:href="#bc"/><use transform="matrix(0.04320987654320988,0,0,0.04320987654320988,34.43827160493828,0)" xlink:href="#bk"/><use transform="matrix(0.04320987654320988,0,0,0.04320987654320988,47.35802469135803,0)" xlink:href="#bc"/><use transform="matrix(0.04320987654320988,0,0,0.04320987654320988,50.77160493827161,0)" xlink:href="#aO"/></g><path d="M24-231v-30h32v30H24zM-9 49c24 4 33-6 33-30v-209h32V24c2 40-23 58-65 49V49" id="bm"/><g id="K"><use transform="matrix(0.04320987654320988,0,0,0.04320987654320988,0,0)" xlink:href="#bk"/><use transform="matrix(0.04320987654320988,0,0,0.04320987654320988,12.919753086419755,0)" xlink:href="#aR"/><use transform="matrix(0.04320987654320988,0,0,0.04320987654320988,21.56172839506173,0)" xlink:href="#aZ"/><use transform="matrix(0.04320987654320988,0,0,0.04320987654320988,30.203703703703713,0)" xlink:href="#aS"/><use transform="matrix(0.04320987654320988,0,0,0.04320987654320988,37.98148148148149,0)" xlink:href="#aN"/><use transform="matrix(0.04320987654320988,0,0,0.04320987654320988,46.62345679012346,0)" xlink:href="#bm"/><use transform="matrix(0.04320987654320988,0,0,0.04320987654320988,50.037037037037045,0)" xlink:href="#aR"/></g><path d="M85-194c31 0 48 13 60 33l-1-100h32l1 261h-30c-2-10 0-23-3-31C134-8 116 4 85 4 32 4 16-35 15-94c0-66 23-100 70-100zm9 24c-40 0-46 34-46 75 0 40 6 74 45 74 42 0 51-32 51-76 0-42-9-74-50-73" id="bn"/><g id="L"><use transform="matrix(0.04320987654320988,0,0,0.04320987654320988,0,0)" xlink:href="#bn"/><use transform="matrix(0.04320987654320988,0,0,0.04320987654320988,8.641975308641976,0)" xlink:href="#aR"/></g><g id="M"><use transform="matrix(0.04320987654320988,0,0,0.04320987654320988,0,0)" xlink:href="#aR"/><use transform="matrix(0.04320987654320988,0,0,0.04320987654320988,8.641975308641976,0)" xlink:href="#aO"/><use transform="matrix(0.04320987654320988,0,0,0.04320987654320988,13.783950617283953,0)" xlink:href="#aO"/><use transform="matrix(0.04320987654320988,0,0,0.04320987654320988,18.925925925925927,0)" xlink:href="#aV"/><use transform="matrix(0.04320987654320988,0,0,0.04320987654320988,27.567901234567906,0)" xlink:href="#aO"/></g><filter id="I" filterUnits="objectBoundingBox" x="-.03" y="-.11" width="1.13" height="1.23"><feOffset result="offOut" in="SourceAlpha" dx="5.98" dy=".43"/><feGaussianBlur result="blurOut" in="offOut" stdDeviation="5"/><feColorMatrix result="colorOut" in="blurOut" values="0 0 0 0 0 0 0 0 0 0 0 0 0 0 0 0 0 0 0.16862745098039217 0"/><feBlend in="SourceGraphic" in2="colorOut"/></filter><g id="N"><use transform="matrix(0.04320987654320988,0,0,0.04320987654320988,0,0)" xlink:href="#aN"/><use transform="matrix(0.04320987654320988,0,0,0.04320987654320988,8.641975308641976,0)" xlink:href="#aO"/><use transform="matrix(0.04320987654320988,0,0,0.04320987654320988,13.783950617283953,0)" xlink:href="#ba"/><use transform="matrix(0.04320987654320988,0,0,0.04320987654320988,21.56172839506173,0)" xlink:href="#bb"/><use transform="matrix(0.04320987654320988,0,0,0.04320987654320988,30.203703703703713,0)" xlink:href="#bc"/><use transform="matrix(0.04320987654320988,0,0,0.04320987654320988,33.61728395061729,0)" xlink:href="#bg"/><use transform="matrix(0.04320987654320988,0,0,0.04320987654320988,41.39506172839507,0)" xlink:href="#aV"/></g><path d="M33 0v-38h34V0H33" id="bo"/><g id="O"><use transform="matrix(0.04320987654320988,0,0,0.04320987654320988,0,0)" xlink:href="#bo"/><use transform="matrix(0.04320987654320988,0,0,0.04320987654320988,4.320987654320988,0)" xlink:href="#bk"/><use transform="matrix(0.04320987654320988,0,0,0.04320987654320988,17.240740740740744,0)" xlink:href="#bn"/><use transform="matrix(0.04320987654320988,0,0,0.04320987654320988,25.882716049382722,0)" xlink:href="#aX"/></g><g id="P"><use transform="matrix(0.04320987654320988,0,0,0.04320987654320988,0,0)" xlink:href="#aZ"/><use transform="matrix(0.04320987654320988,0,0,0.04320987654320988,8.641975308641976,0)" xlink:href="#aV"/></g><path d="M143 4C61 4 22-44 18-125c-5-107 100-154 193-111 17 8 29 25 37 43l-32 9c-13-25-37-40-76-40-61 0-88 39-88 99 0 61 29 100 91 101 35 0 62-11 79-27v-45h-74v-28h105v86C228-13 192 4 143 4" id="bp"/><g id="Q"><use transform="matrix(0.04320987654320988,0,0,0.04320987654320988,0,0)" xlink:href="#bp"/><use transform="matrix(0.04320987654320988,0,0,0.04320987654320988,12.098765432098766,0)" xlink:href="#aP"/><use transform="matrix(0.04320987654320988,0,0,0.04320987654320988,20.74074074074074,0)" xlink:href="#aN"/><use transform="matrix(0.04320987654320988,0,0,0.04320987654320988,29.382716049382715,0)" xlink:href="#aO"/><use transform="matrix(0.04320987654320988,0,0,0.04320987654320988,34.52469135802469,0)" xlink:href="#bn"/><use transform="matrix(0.04320987654320988,0,0,0.04320987654320988,43.166666666666664,0)" xlink:href="#aN"/><use transform="matrix(0.04320987654320988,0,0,0.04320987654320988,51.80864197530864,0)" xlink:href="#aO"/></g><g id="R"><use transform="matrix(0.04320987654320988,0,0,0.04320987654320988,0,0)" xlink:href="#bi"/><use transform="matrix(0.04320987654320988,0,0,0.04320987654320988,11.19135802469136,0)" xlink:href="#aR"/><use transform="matrix(0.04320987654320988,0,0,0.04320987654320988,19.833333333333336,0)" xlink:href="#aS"/><use transform="matrix(0.04320987654320988,0,0,0.04320987654320988,27.611111111111114,0)" xlink:href="#aR"/><use transform="matrix(0.04320987654320988,0,0,0.04320987654320988,36.25308641975309,0)" xlink:href="#aN"/><use transform="matrix(0.04320987654320988,0,0,0.04320987654320988,44.89506172839506,0)" xlink:href="#aS"/></g><g id="S"><use transform="matrix(0.04320987654320988,0,0,0.04320987654320988,0,0)" xlink:href="#bg"/><use transform="matrix(0.04320987654320988,0,0,0.04320987654320988,7.777777777777779,0)" xlink:href="#aN"/><use transform="matrix(0.04320987654320988,0,0,0.04320987654320988,16.419753086419753,0)" xlink:href="#aW"/><use transform="matrix(0.04320987654320988,0,0,0.04320987654320988,19.833333333333336,0)" xlink:href="#bc"/><use transform="matrix(0.04320987654320988,0,0,0.04320987654320988,23.246913580246915,0)" xlink:href="#bn"/><use transform="matrix(0.04320987654320988,0,0,0.04320987654320988,31.888888888888893,0)" xlink:href="#aN"/><use transform="matrix(0.04320987654320988,0,0,0.04320987654320988,40.53086419753087,0)" xlink:href="#aO"/></g><path d="M143 0L79-87 56-68V0H24v-261h32v163l83-92h37l-77 82L181 0h-38" id="bq"/><g id="T"><use transform="matrix(0.04320987654320988,0,0,0.04320987654320988,0,0)" xlink:href="#aM"/><use transform="matrix(0.04320987654320988,0,0,0.04320987654320988,8.641975308641976,0)" xlink:href="#bc"/><use transform="matrix(0.04320987654320988,0,0,0.04320987654320988,12.055555555555557,0)" xlink:href="#aZ"/><use transform="matrix(0.04320987654320988,0,0,0.04320987654320988,20.69753086419753,0)" xlink:href="#bq"/></g><g id="U"><use transform="matrix(0.04320987654320988,0,0,0.04320987654320988,0,0)" xlink:href="#bj"/><use transform="matrix(0.04320987654320988,0,0,0.04320987654320988,4.320987654320988,0)" xlink:href="#bk"/><use transform="matrix(0.04320987654320988,0,0,0.04320987654320988,17.240740740740744,0)" xlink:href="#bl"/><use transform="matrix(0.04320987654320988,0,0,0.04320987654320988,25.882716049382722,0)" xlink:href="#aO"/><use transform="matrix(0.04320987654320988,0,0,0.04320987654320988,31.024691358024693,0)" xlink:href="#bc"/><use transform="matrix(0.04320987654320988,0,0,0.04320987654320988,34.43827160493828,0)" xlink:href="#bk"/><use transform="matrix(0.04320987654320988,0,0,0.04320987654320988,47.35802469135803,0)" xlink:href="#bc"/><use transform="matrix(0.04320987654320988,0,0,0.04320987654320988,50.77160493827161,0)" xlink:href="#aO"/></g><path d="M101-234c-31-9-42 10-38 44h38v23H63V0H32v-167H5v-23h27c-7-52 17-82 69-68v24" id="br"/><path d="M100-194c62-1 85 37 85 99 1 63-27 99-86 99S16-35 15-95c0-66 28-99 85-99zM99-20c44 1 53-31 53-75 0-43-8-75-51-75s-53 32-53 75 10 74 51 75zM76-211c8-23 27-35 38-54h36v5l-58 49H76" id="bs"/><g id="V"><use transform="matrix(0.04320987654320988,0,0,0.04320987654320988,0,0)" xlink:href="#bj"/><use transform="matrix(0.04320987654320988,0,0,0.04320987654320988,4.320987654320988,0)" xlink:href="#aZ"/><use transform="matrix(0.04320987654320988,0,0,0.04320987654320988,12.962962962962964,0)" xlink:href="#br"/><use transform="matrix(0.04320987654320988,0,0,0.04320987654320988,17.283950617283953,0)" xlink:href="#aV"/><use transform="matrix(0.04320987654320988,0,0,0.04320987654320988,25.925925925925927,0)" xlink:href="#aO"/><use transform="matrix(0.04320987654320988,0,0,0.04320987654320988,31.067901234567906,0)" xlink:href="#bk"/><use transform="matrix(0.04320987654320988,0,0,0.04320987654320988,43.98765432098766,0)" xlink:href="#aN"/><use transform="matrix(0.04320987654320988,0,0,0.04320987654320988,52.62962962962963,0)" xlink:href="#ba"/><use transform="matrix(0.04320987654320988,0,0,0.04320987654320988,60.40740740740741,0)" xlink:href="#bc"/><use transform="matrix(0.04320987654320988,0,0,0.04320987654320988,63.820987654320994,0)" xlink:href="#bs"/><use transform="matrix(0.04320987654320988,0,0,0.04320987654320988,72.46296296296298,0)" xlink:href="#aZ"/></g><path fill="#fff" d="M137 0h-34L2-248h35l83 218 83-218h36" id="bt"/><path fill="#fff" d="M141-36C126-15 110 5 73 4 37 3 15-17 15-53c-1-64 63-63 125-63 3-35-9-54-41-54-24 1-41 7-42 31l-33-3c5-37 33-52 76-52 45 0 72 20 72 64v82c-1 20 7 32 28 27v20c-31 9-61-2-59-35zM48-53c0 20 12 33 32 33 41-3 63-29 60-74-43 2-92-5-92 41" id="bu"/><path fill="#fff" d="M24 0v-261h32V0H24" id="bv"/><path fill="#fff" d="M85-194c31 0 48 13 60 33l-1-100h32l1 261h-30c-2-10 0-23-3-31C134-8 116 4 85 4 32 4 16-35 15-94c0-66 23-100 70-100zm9 24c-40 0-46 34-46 75 0 40 6 74 45 74 42 0 51-32 51-76 0-42-9-74-50-73" id="bw"/><path fill="#fff" d="M114-163C36-179 61-72 57 0H25l-1-190h30c1 12-1 29 2 39 6-27 23-49 58-41v29" id="bx"/><g id="W"><use transform="matrix(0.04320987654320988,0,0,0.04320987654320988,0,0)" xlink:href="#bt"/><use transform="matrix(0.04320987654320988,0,0,0.04320987654320988,9.203703703703706,0)" xlink:href="#bu"/><use transform="matrix(0.04320987654320988,0,0,0.04320987654320988,17.845679012345684,0)" xlink:href="#bv"/><use transform="matrix(0.04320987654320988,0,0,0.04320987654320988,21.259259259259267,0)" xlink:href="#ag"/><use transform="matrix(0.04320987654320988,0,0,0.04320987654320988,24.672839506172846,0)" xlink:href="#bw"/><use transform="matrix(0.04320987654320988,0,0,0.04320987654320988,33.314814814814824,0)" xlink:href="#bu"/><use transform="matrix(0.04320987654320988,0,0,0.04320987654320988,41.9567901234568,0)" xlink:href="#bx"/></g><path fill="#fff" d="M30 0v-248h33v221h125V0H30" id="by"/><path fill="#fff" d="M143 0L79-87 56-68V0H24v-261h32v163l83-92h37l-77 82L181 0h-38" id="bz"/><g id="X"><use transform="matrix(0.04320987654320988,0,0,0.04320987654320988,0,0)" xlink:href="#by"/><use transform="matrix(0.04320987654320988,0,0,0.04320987654320988,8.641975308641976,0)" xlink:href="#ag"/><use transform="matrix(0.04320987654320988,0,0,0.04320987654320988,12.055555555555557,0)" xlink:href="#af"/><use transform="matrix(0.04320987654320988,0,0,0.04320987654320988,20.69753086419753,0)" xlink:href="#bz"/></g><g id="Y"><use transform="matrix(0.04320987654320988,0,0,0.04320987654320988,0,0)" xlink:href="#aL"/><use transform="matrix(0.04320987654320988,0,0,0.04320987654320988,9.462962962962964,0)" xlink:href="#bi"/><use transform="matrix(0.04320987654320988,0,0,0.04320987654320988,20.654320987654323,0)" xlink:href="#aR"/><use transform="matrix(0.04320987654320988,0,0,0.04320987654320988,29.296296296296298,0)" xlink:href="#aS"/><use transform="matrix(0.04320987654320988,0,0,0.04320987654320988,37.074074074074076,0)" xlink:href="#aR"/><use transform="matrix(0.04320987654320988,0,0,0.04320987654320988,45.71604938271605,0)" xlink:href="#aN"/><use transform="matrix(0.04320987654320988,0,0,0.04320987654320988,54.35802469135802,0)" xlink:href="#aS"/></g><g id="Z"><use transform="matrix(0.04320987654320988,0,0,0.04320987654320988,0,0)" xlink:href="#bd"/><use transform="matrix(0.04320987654320988,0,0,0.04320987654320988,10.370370370370372,0)" xlink:href="#aN"/><use transform="matrix(0.04320987654320988,0,0,0.04320987654320988,19.01234567901235,0)" xlink:href="#aU"/><use transform="matrix(0.04320987654320988,0,0,0.04320987654320988,27.654320987654323,0)" xlink:href="#aR"/><use transform="matrix(0.04320987654320988,0,0,0.04320987654320988,36.2962962962963,0)" xlink:href="#aO"/></g><g id="aa"><use transform="matrix(0.04320987654320988,0,0,0.04320987654320988,0,0)" xlink:href="#aY"/><use transform="matrix(0.04320987654320988,0,0,0.04320987654320988,10.370370370370372,0)" xlink:href="#aS"/><use transform="matrix(0.04320987654320988,0,0,0.04320987654320988,18.148148148148152,0)" xlink:href="#aQ"/><use transform="matrix(0.04320987654320988,0,0,0.04320987654320988,22.46913580246914,0)" xlink:href="#aN"/><use transform="matrix(0.04320987654320988,0,0,0.04320987654320988,31.111111111111114,0)" xlink:href="#bn"/><use transform="matrix(0.04320987654320988,0,0,0.04320987654320988,39.75308641975309,0)" xlink:href="#be"/><use transform="matrix(0.04320987654320988,0,0,0.04320987654320988,44.074074074074076,0)" xlink:href="#aS"/><use transform="matrix(0.04320987654320988,0,0,0.04320987654320988,51.851851851851855,0)" xlink:href="#aQ"/><use transform="matrix(0.04320987654320988,0,0,0.04320987654320988,56.17283950617284,0)" xlink:href="#bc"/><use transform="matrix(0.04320987654320988,0,0,0.04320987654320988,59.586419753086425,0)" xlink:href="#ba"/><use transform="matrix(0.04320987654320988,0,0,0.04320987654320988,67.3641975308642,0)" xlink:href="#aN"/><use transform="matrix(0.04320987654320988,0,0,0.04320987654320988,76.00617283950618,0)" xlink:href="#aS"/><use transform="matrix(0.04320987654320988,0,0,0.04320987654320988,83.78395061728395,0)" xlink:href="#aX"/></g><filter id="ab" filterUnits="objectBoundingBox" x="-.03" y="-.14" width="1.13" height="1.3"><feOffset result="offOut" in="SourceAlpha" dx="5.99" dy=".42"/><feGaussianBlur result="blurOut" in="offOut" stdDeviation="5"/><feColorMatrix result="colorOut" in="blurOut" values="0 0 0 0 0 0 0 0 0 0 0 0 0 0 0 0 0 0 0.16862745098039217 0"/><feBlend in="SourceGraphic" in2="colorOut"/></filter><path fill="#fff" d="M212-179c-10-28-35-45-73-45-59 0-87 40-87 99 0 60 29 101 89 101 43 0 62-24 78-52l27 14C228-24 195 4 139 4 59 4 22-46 18-125c-6-104 99-153 187-111 19 9 31 26 39 46" id="bA"/><path fill="#fff" d="M84 4C-5 8 30-112 23-190h32v120c0 31 7 50 39 49 72-2 45-101 50-169h31l1 190h-30c-1-10 1-25-2-33-11 22-28 36-60 37" id="bB"/><g id="ac"><use transform="matrix(0.04320987654320988,0,0,0.04320987654320988,0,0)" xlink:href="#bA"/><use transform="matrix(0.04320987654320988,0,0,0.04320987654320988,11.19135802469136,0)" xlink:href="#bu"/><use transform="matrix(0.04320987654320988,0,0,0.04320987654320988,19.833333333333336,0)" xlink:href="#bv"/><use transform="matrix(0.04320987654320988,0,0,0.04320987654320988,23.246913580246915,0)" xlink:href="#ah"/><use transform="matrix(0.04320987654320988,0,0,0.04320987654320988,31.024691358024693,0)" xlink:href="#bB"/><use transform="matrix(0.04320987654320988,0,0,0.04320987654320988,39.66666666666667,0)" xlink:href="#bv"/><use transform="matrix(0.04320987654320988,0,0,0.04320987654320988,43.080246913580254,0)" xlink:href="#bu"/><use transform="matrix(0.04320987654320988,0,0,0.04320987654320988,51.72222222222223,0)" xlink:href="#bx"/></g><path fill="#fff" d="M100-194c63 0 86 42 84 106H49c0 40 14 67 53 68 26 1 43-12 49-29l28 8c-11 28-37 45-77 45C44 4 14-33 15-96c1-61 26-98 85-98zm52 81c6-60-76-77-97-28-3 7-6 17-6 28h103" id="bC"/><path fill="#fff" d="M135-143c-3-34-86-38-87 0 15 53 115 12 119 90S17 21 10-45l28-5c4 36 97 45 98 0-10-56-113-15-118-90-4-57 82-63 122-42 12 7 21 19 24 35" id="bD"/><path fill="#fff" d="M59-47c-2 24 18 29 38 22v24C64 9 27 4 27-40v-127H5v-23h24l9-43h21v43h35v23H59v120" id="bE"/><path fill="#fff" d="M34 0v-190h32V0H34zM24-211c8-23 27-35 38-54h36v5l-58 49H24" id="bF"/><g id="ad"><use transform="matrix(0.04320987654320988,0,0,0.04320987654320988,0,0)" xlink:href="#bC"/><use transform="matrix(0.04320987654320988,0,0,0.04320987654320988,8.641975308641976,0)" xlink:href="#bD"/><use transform="matrix(0.04320987654320988,0,0,0.04320987654320988,16.419753086419753,0)" xlink:href="#bE"/><use transform="matrix(0.04320987654320988,0,0,0.04320987654320988,20.74074074074074,0)" xlink:href="#bu"/><use transform="matrix(0.04320987654320988,0,0,0.04320987654320988,29.382716049382715,0)" xlink:href="#bw"/><use transform="matrix(0.04320987654320988,0,0,0.04320987654320988,38.02469135802469,0)" xlink:href="#bF"/><use transform="matrix(0.04320987654320988,0,0,0.04320987654320988,42.34567901234568,0)" xlink:href="#bD"/><use transform="matrix(0.04320987654320988,0,0,0.04320987654320988,50.123456790123456,0)" xlink:href="#bE"/><use transform="matrix(0.04320987654320988,0,0,0.04320987654320988,54.44444444444444,0)" xlink:href="#ag"/><use transform="matrix(0.04320987654320988,0,0,0.04320987654320988,57.85802469135802,0)" xlink:href="#ah"/><use transform="matrix(0.04320987654320988,0,0,0.04320987654320988,65.6358024691358,0)" xlink:href="#bu"/><use transform="matrix(0.04320987654320988,0,0,0.04320987654320988,74.27777777777777,0)" xlink:href="#bD"/></g></defs></g></svg>